<?xml version="1.0" encoding="utf-8"?>
<!-- Generator: Adobe Illustrator 27.5.0, SVG Export Plug-In . SVG Version: 6.00 Build 0)  -->
<svg version="1.1" id="Layer_1" xmlns="http://www.w3.org/2000/svg" xmlns:xlink="http://www.w3.org/1999/xlink" x="0px" y="0px"
	 viewBox="0 0 216 108" style="enable-background:new 0 0 216 108;" xml:space="preserve">
<style type="text/css">
	.st0{enable-background:new    ;}
	.st1{fill:#F0F0F0;}
</style>
<g class="st0">
	<path class="st1" d="M4,49.7V17.6h12.7c3.2,0,5.6,0.8,7.1,2.4c1.5,1.6,2.3,3.4,2.3,5.5c0,3.6-1.9,6.1-5.7,7.3
		c2.3,0.6,3.9,1.6,5,3.1c1.1,1.5,1.6,3.2,1.6,5.1c0,2.5-0.9,4.7-2.6,6.4c-1.7,1.7-4.3,2.6-7.9,2.6H4z M7.9,31.3h7
		c2.9,0,4.8-0.6,5.8-1.7c1-1.1,1.5-2.4,1.5-3.9c0-1.5-0.5-2.7-1.6-3.6c-1-0.9-2.6-1.4-4.7-1.4h-8V31.3z M7.9,46.2h8.6
		c2.1,0,3.7-0.5,4.9-1.5c1.1-1,1.7-2.3,1.7-4c0-1.1-0.3-2.2-0.8-3.2c-0.5-1-1.2-1.7-2.2-2.3c-0.9-0.5-2.3-0.8-4.2-0.8h-8V46.2z"/>
	<path class="st1" d="M54,46.2v3.5H33.2V17.6h20.4v3.5H37.2v10.2h13v3.3h-13v11.6H54z"/>
	<path class="st1" d="M83.3,49.7h-3.9l-16.6-28l0,2.1c0,0.8,0.1,1.5,0.1,2v23.9h-3.3V17.6h5l15.6,26.2l0-2.2c0-0.9,0-1.7,0-2.3V17.6
		h3.2V49.7z"/>
</g>
<g class="st0">
	<path class="st1" d="M0,79l9.2-1.6c0.8,2.6,2.7,3.9,5.9,3.9c2.5,0,3.7-0.7,3.7-2c0-0.7-0.3-1.2-0.9-1.6c-0.6-0.4-1.6-0.7-3.1-1
		C9.3,75.6,5.6,74.2,4,72.4c-1.6-1.7-2.4-3.8-2.4-6.2c0-3,1.2-5.6,3.5-7.6c2.3-2,5.6-3,9.9-3c6.6,0,10.9,2.6,13,7.9l-8.2,2.5
		c-0.8-2.2-2.6-3.2-5.2-3.2c-2.2,0-3.2,0.7-3.2,2c0,0.6,0.2,1.1,0.7,1.4c0.5,0.3,1.4,0.6,2.8,0.9c3.9,0.8,6.6,1.5,8.2,2.2
		c1.6,0.6,3,1.7,4.1,3.2s1.6,3.3,1.6,5.4c0,3.3-1.3,5.9-4,7.9c-2.6,2-6.1,3-10.4,3C6.7,88.8,1.8,85.6,0,79z"/>
</g>
<g class="st0">
	<path class="st1" d="M50.1,88.3L48.3,82h-8.6l-1.9,6.3h-8l9.9-32.2h10.4l10.1,32.2H50.1z M41.3,75h5.2l-2.6-9.3L41.3,75z"/>
	<path class="st1" d="M90.6,88.3h-8l-8.8-14.2c-1.1-1.8-2.3-4-3.4-6.6c0.5,2.1,0.8,3.8,0.8,5.3v15.6h-8V56.2h9.3L80,68
		c1.5,2.3,2.6,4.4,3.4,6.2c-0.5-2.7-0.8-5.6-0.8-8.4v-9.5h8V88.3z"/>
	<path class="st1" d="M96.2,88.3V56.2h12.4c5.4,0,9.5,1.6,12.1,4.8c2.7,3.2,4,6.9,4,11.1c0,4.8-1.4,8.7-4.3,11.7
		c-2.9,3-6.6,4.5-11.2,4.5H96.2z M106.1,80.9h2.6c1.6,0,3-0.8,4.1-2.4c1.1-1.6,1.7-3.7,1.7-6.5c0-2.3-0.5-4.4-1.5-6.1
		c-1-1.7-2.4-2.5-4.3-2.5h-2.6V80.9z"/>
	<path class="st1" d="M153.2,80.7v7.7H129V56.2h24.2v7.4h-14.5v4.7h11.7v7.1h-11.7v5.3H153.2z"/>
	<path class="st1" d="M185.8,88.3h-10.9L170.1,76H167v12.3h-9.9V56.2H174c3.7,0,6.6,0.9,8.6,2.6c2.1,1.7,3.1,4,3.1,6.9
		c0,1.9-0.4,3.5-1.1,4.9s-2.3,2.7-4.6,3.8L185.8,88.3z M167,69.2h4.2c1.2,0,2.2-0.3,3-0.8s1.1-1.3,1.1-2.3c0-2.1-1.3-3.1-3.8-3.1
		H167V69.2z"/>
	<path class="st1" d="M187.1,79l9.2-1.6c0.8,2.6,2.7,3.9,5.9,3.9c2.5,0,3.7-0.7,3.7-2c0-0.7-0.3-1.2-0.9-1.6s-1.6-0.7-3.1-1
		c-5.6-1.1-9.3-2.5-10.9-4.2c-1.6-1.7-2.4-3.8-2.4-6.2c0-3,1.2-5.6,3.5-7.6c2.3-2,5.6-3,9.9-3c6.6,0,10.9,2.6,13,7.9l-8.2,2.5
		c-0.8-2.2-2.6-3.2-5.2-3.2c-2.2,0-3.2,0.7-3.2,2c0,0.6,0.2,1.1,0.7,1.4c0.5,0.3,1.4,0.6,2.8,0.9c3.9,0.8,6.6,1.5,8.2,2.2
		c1.6,0.6,3,1.7,4.1,3.2c1.1,1.5,1.6,3.3,1.6,5.4c0,3.3-1.3,5.9-4,7.9c-2.6,2-6.1,3-10.4,3C193.8,88.8,189,85.6,187.1,79z"/>
</g>
</svg>
